ffmpeg version 8.0.1 Copyright (c) 2000-2025 the FFmpeg developers
  built with Apple clang version 17.0.0 (clang-1700.4.4.1)
  configuration: --prefix=/opt/homebrew/Cellar/ffmpeg/8.0.1 --enable-shared --enable-pthreads --enable-version3 --cc=clang --host-cflags= --host-ldflags= --enable-ffplay --enable-gnutls --enable-gpl --enable-libaom --enable-libaribb24 --enable-libbluray --enable-libdav1d --enable-libharfbuzz --enable-libjxl --enable-libmp3lame --enable-libopus --enable-librav1e --enable-librist --enable-librubberband --enable-libsnappy --enable-libsrt --enable-libssh --enable-libsvtav1 --enable-libtesseract --enable-libtheora --enable-libvidstab --enable-libvmaf --enable-libvorbis --enable-libvpx --enable-libwebp --enable-libx264 --enable-libx265 --enable-libxml2 --enable-libxvid --enable-lzma --enable-libfontconfig --enable-libfreetype --enable-frei0r --enable-libass --enable-libopencore-amrnb --enable-libopencore-amrwb --enable-libopenjpeg --enable-libspeex --enable-libsoxr --enable-libzmq --enable-libzimg --disable-libjack --disable-indev=jack --enable-videotoolbox --enable-audiotoolbox --enable-neon
  libavutil      60.  8.100 / 60.  8.100
  libavcodec     62. 11.100 / 62. 11.100
  libavformat    62.  3.100 / 62.  3.100
  libavdevice    62.  1.100 / 62.  1.100
  libavfilter    11.  4.100 / 11.  4.100
  libswscale      9.  1.100 /  9.  1.100
  libswresample   6.  1.100 /  6.  1.100
Input #0, mov,mp4,m4a,3gp,3g2,mj2, from '/Users/dynamodevesh/Desktop/Buttercutai/backend/jobs/0c6cbc9a-1d41-43b8-a840-8429aeec24b7/jatayu.mp4':
  Metadata:
    major_brand     : mp42
    minor_version   : 0
    compatible_brands: mp42isom
  Duration: 00:00:25.51, start: 0.000000, bitrate: 1054 kb/s
  Stream #0:0[0x1](und): Video: h264 (High) (avc1 / 0x31637661), yuv420p(tv, bt470bg/bt470bg/smpte170m, progressive), 478x850, 925 kb/s, 30 fps, 30 tbr, 90k tbn (default)
    Metadata:
      vendor_id       : [0][0][0][0]
  Stream #0:1[0x2](und): Audio: aac (LC) (mp4a / 0x6134706D), 44100 Hz, stereo, fltp, 127 kb/s (default)
    Metadata:
      vendor_id       : [0][0][0][0]
Stream mapping:
  Stream #0:0 -> #0:0 (h264 (native) -> h264 (libx264))
  Stream #0:1 -> #0:1 (copy)
Press [q] to stop, [?] for help
[libx264 @ 0x8110a5880] using cpu capabilities: ARMv8 NEON DotProd
[libx264 @ 0x8110a5880] profile High, level 3.1, 4:2:0, 8-bit
[libx264 @ 0x8110a5880] 264 - core 165 r3222 b35605a - H.264/MPEG-4 AVC codec - Copyleft 2003-2025 - http://www.videolan.org/x264.html - options: cabac=1 ref=2 deblock=1:0:0 analyse=0x3:0x113 me=hex subme=6 psy=1 psy_rd=1.00:0.00 mixed_ref=1 me_range=16 chroma_me=1 trellis=1 8x8dct=1 cqm=0 deadzone=21,11 fast_pskip=1 chroma_qp_offset=-2 threads=12 lookahead_threads=2 sliced_threads=0 nr=0 decimate=1 interlaced=0 bluray_compat=0 constrained_intra=0 bframes=3 b_pyramid=2 b_adapt=1 b_bias=0 direct=1 weightb=1 open_gop=0 weightp=1 keyint=250 keyint_min=25 scenecut=40 intra_refresh=0 rc_lookahead=30 rc=crf mbtree=1 crf=23.0 qcomp=0.60 qpmin=0 qpmax=69 qpstep=4 ip_ratio=1.40 aq=1:1.00
Output #0, mp4, to '/Users/dynamodevesh/Desktop/Buttercutai/backend/jobs/0c6cbc9a-1d41-43b8-a840-8429aeec24b7/rendered_manual.mp4':
  Metadata:
    major_brand     : mp42
    minor_version   : 0
    compatible_brands: mp42isom
    encoder         : Lavf62.3.100
  Stream #0:0(und): Video: h264 (avc1 / 0x31637661), yuv420p(tv, bt470bg/bt470bg/smpte170m, progressive), 478x850, q=2-31, 30 fps, 15360 tbn (default)
    Metadata:
      encoder         : Lavc62.11.100 libx264
      vendor_id       : [0][0][0][0]
    Side data:
      cpb: bitrate max/min/avg: 0/0/0 buffer size: 0 vbv_delay: N/A
  Stream #0:1(und): Audio: aac (LC) (mp4a / 0x6134706D), 44100 Hz, stereo, fltp, 127 kb/s (default)
    Metadata:
      vendor_id       : [0][0][0][0]
frame=  141 fps=0.0 q=29.0 size=     512KiB time=00:00:04.63 bitrate= 905.3kbits/s speed=9.17x elapsed=0:00:00.50    frame=  291 fps=289 q=29.0 size=    1280KiB time=00:00:09.63 bitrate=1088.5kbits/s speed=9.57x elapsed=0:00:01.00    frame=  446 fps=295 q=29.0 size=    2048KiB time=00:00:14.80 bitrate=1133.6kbits/s speed=9.79x elapsed=0:00:01.51    frame=  608 fps=302 q=29.0 size=    2560KiB time=00:00:20.20 bitrate=1038.2kbits/s speed=  10x elapsed=0:00:02.01    [out#0/mp4 @ 0x810c283c0] video:3027KiB audio:398KiB subtitle:0KiB other streams:0KiB global headers:0KiB muxing overhead: 0.976016%
frame=  763 fps=308 q=-1.0 Lsize=    3459KiB time=00:00:25.36 bitrate=1117.1kbits/s speed=10.2x elapsed=0:00:02.47    
[libx264 @ 0x8110a5880] frame I:20    Avg QP:19.86  size: 13483
[libx264 @ 0x8110a5880] frame P:451   Avg QP:23.93  size:  5140
[libx264 @ 0x8110a5880] frame B:292   Avg QP:25.48  size:  1752
[libx264 @ 0x8110a5880] consecutive B-frames: 40.0% 22.3% 14.2% 23.6%
[libx264 @ 0x8110a5880] mb I  I16..4: 25.3% 68.6%  6.1%
[libx264 @ 0x8110a5880] mb P  I16..4:  6.3% 14.7%  0.5%  P16..4: 34.0% 10.8%  3.6%  0.0%  0.0%    skip:30.1%
[libx264 @ 0x8110a5880] mb B  I16..4:  1.5%  3.1%  0.1%  B16..8: 26.9%  3.9%  0.1%  direct: 9.8%  skip:54.6%  L0:52.4% L1:43.8% BI: 3.8%
[libx264 @ 0x8110a5880] 8x8 transform intra:68.2% inter:88.2%
[libx264 @ 0x8110a5880] coded y,uvDC,uvAC intra: 37.3% 68.4% 10.0% inter: 10.8% 18.3% 0.1%
[libx264 @ 0x8110a5880] i16 v,h,dc,p: 25% 39% 11% 24%
[libx264 @ 0x8110a5880] i8 v,h,dc,ddl,ddr,vr,hd,vl,hu: 24% 23% 21%  4%  6%  6%  6%  5%  5%
[libx264 @ 0x8110a5880] i4 v,h,dc,ddl,ddr,vr,hd,vl,hu: 27% 21% 13%  4%  9%  9%  7%  6%  3%
[libx264 @ 0x8110a5880] i8c dc,h,v,p: 40% 27% 20% 13%
[libx264 @ 0x8110a5880] Weighted P-Frames: Y:0.0% UV:0.0%
[libx264 @ 0x8110a5880] ref P L0: 88.6% 11.4%
[libx264 @ 0x8110a5880] ref B L0: 89.4% 10.6%
[libx264 @ 0x8110a5880] ref B L1: 98.1%  1.9%
[libx264 @ 0x8110a5880] kb/s:974.85
